<svg version="1.1" xmlns="http://www.w3.org/2000/svg" xmlns:xlink="http://www.w3.org/1999/xlink" width="194.49259" height="42.66836" viewBox="0,0,194.49259,42.66836"><g transform="translate(-142.7537,-158.66582)"><g data-paper-data="{&quot;isPaintingLayer&quot;:true}" fill-rule="nonzero" stroke="none" stroke-width="0" stroke-linecap="butt" stroke-linejoin="miter" stroke-miterlimit="10" stroke-dasharray="" stroke-dashoffset="0" style="mix-blend-mode: normal"><path d="M337.24628,188.86336c0,16.62776 -194.49257,16.62776 -194.49257,0c0,-5.75078 5.30961,-12.0243 14.47799,-15.17486c17.34098,-5.95892 48.48616,-5.86051 83.61879,-5.86051c31.68903,0 59.54182,-1.30051 77.05333,3.37312c12.16759,3.2474 19.34248,10.84534 19.34248,17.66225z" fill="#ad5911"/><path d="M330.95104,179.45954c0.60215,10.38197 -181.98901,11.58625 -181.98901,0.60214c0,-4.23953 8.21927,-7.64211 18.1703,-11.14535c8.11158,-2.85566 19.56526,-3.49164 32.13695,-5.36817c11.96377,-1.78579 24.83303,-4.88234 40.91356,-4.88234c8.75932,0 16.11643,2.36858 23.74457,3.02901c19.07294,1.65129 35.37389,3.04551 46.7689,6.46645c11.99113,3.5999 19.98181,6.59266 20.25473,11.29825z" fill="#f39f57"/><path d="M179.52095,181.0081l2.97401,-7.59815l10.75219,-3.28569l7.32064,6.57137l-10.75219,7.80351z" fill="#92584a"/><path d="M214.1772,176.10965l2.97401,-10.92301l13.48388,-2.56764l2.40359,6.50114l-7.47416,5.41522z" fill="#92584a"/><path d="M247.8086,182.27381l-1.94304,-9.83033l11.5717,-2.84081l7.86698,6.22796l-9.65951,7.60058z" fill="#92584a"/><path d="M276.96479,176.06656l-2.21621,-7.91815l12.66438,-1.74813l7.32064,5.95479l-8.56683,7.87375z" fill="#92584a"/><path d="M214.05018,176.55444l1.30499,-4.3633l8.70578,-1.29317l7.42344,-5.88155l1.67136,4.30443l-7.5962,5.78134z" fill="#583229"/><path d="M247.80153,182.27238l-0.98931,-4.8289l8.41717,0.71764l5.90497,-5.4659l4.16281,3.01194l-9.65951,7.60058z" fill="#583229"/><path d="M276.95772,176.05948l-1.02405,-3.86481l9.03853,2.93587l6.01017,-5.63772l3.74416,2.85517l-8.56683,7.87376z" fill="#583229"/><path d="M179.39748,180.88463l1.17165,-2.71876l8.81019,2.0857l8.16382,-6.08668l3.14525,2.52932l-10.99627,8.04759z" fill="#583229"/></g></g></svg>